<?xml version="1.0" encoding="UTF-8" standalone="no"?>
<!-- Generator: Adobe Illustrator 25.1.0, SVG Export Plug-In . SVG Version: 6.00 Build 0)  -->

<svg
   version="1.1"
   id="Capa_1"
   x="0px"
   y="0px"
   viewBox="0 0 1091.9764 100.0757"
   xml:space="preserve"
   sodipodi:docname="01qcUWBH.svg"
   width="1091.9764"
   height="100.0757"
   inkscape:version="1.4 (86a8ad7, 2024-10-11)"
   xmlns:inkscape="http://www.inkscape.org/namespaces/inkscape"
   xmlns:sodipodi="http://sodipodi.sourceforge.net/DTD/sodipodi-0.dtd"
   xmlns="http://www.w3.org/2000/svg"
   xmlns:svg="http://www.w3.org/2000/svg"><defs
   id="defs20" /><sodipodi:namedview
   id="namedview20"
   pagecolor="#505050"
   bordercolor="#eeeeee"
   borderopacity="1"
   inkscape:showpageshadow="0"
   inkscape:pageopacity="0"
   inkscape:pagecheckerboard="0"
   inkscape:deskcolor="#505050"
   inkscape:zoom="0.5357067"
   inkscape:cx="500.27375"
   inkscape:cy="49.467367"
   inkscape:window-width="1366"
   inkscape:window-height="705"
   inkscape:window-x="-8"
   inkscape:window-y="-8"
   inkscape:window-maximized="1"
   inkscape:current-layer="Capa_1" />
<style
   type="text/css"
   id="style1">
	.st0{fill:#4254F4;}
	.st1{fill:#FFFFFF;}
</style>
<g
   id="g9"
   style="fill:#54f442;fill-opacity:1"
   transform="translate(10)">
	<path
   class="st0"
   d="m 547.9,24.9 h 11.3 l 1.9,7.7 h 0.9 c 4.8,-10.5 27.1,-12.7 32.8,0.6 h 0.8 c 2.9,-4.5 7.2,-9.4 17,-9.4 27,-1.5 18,36.4 19.5,53.5 h -15.5 v -31 c 0,-9.2 -3.5,-11.5 -8.9,-11.5 -5.8,0 -9.1,3.8 -10.2,7.3 v 35.2 h -15.4 v -32 C 583.3,31.8 567.9,32.6 563.3,41.1 V 77.3 H 548 Z"
   id="path1"
   style="fill:#54f442;fill-opacity:1" />
	<path
   class="st0"
   d="m 665.7,23.8 c 36.8,-2.4 37,57 0,54.6 -37.1,2.5 -36.9,-57 0,-54.6 z m 11.9,27.4 c 1.3,-22.3 -25.2,-22.2 -23.9,0 -1.3,22 25.2,22.1 23.9,0 z"
   id="path2"
   style="fill:#54f442;fill-opacity:1" />
	<path
   class="st0"
   d="m 750.2,77.3 h -11.7 l -2.1,-5.8 h -0.6 C 723.2,84.9 695.4,79 697,51 696,24.1 720.8,17.2 734.1,29.8 h 0.6 V 0.3 h 15.4 z M 734.8,39.5 c -29.6,-23.7 -29,47 0,23.4 z"
   id="path3"
   style="fill:#54f442;fill-opacity:1" />
	<path
   class="st0"
   d="m 784.1,23.8 c 20.8,-0.1 27.7,13.5 24.5,29.1 h -36.9 c -1.8,18.7 23.4,18.8 22.6,6.3 l 14.3,0.3 c 0.8,7.9 -2.1,18.4 -24.8,18.8 -35.7,2.9 -37.1,-56.3 0.3,-54.5 z M 795,44.2 c 1.8,-13.7 -23.2,-13.7 -22.9,0 z"
   id="path4"
   style="fill:#54f442;fill-opacity:1" />
	<path
   class="st0"
   d="M 831.4,77.3 H 815.9 V 24.9 h 11.3 l 1.9,7.3 h 0.8 c 12.2,-17.4 34.2,-6.4 27.7,15.1 L 844.3,46.5 C 847.7,34 835.4,31 831.3,41.6 v 35.7 z"
   id="path5"
   style="fill:#54f442;fill-opacity:1" />
	<path
   class="st0"
   d="M 862.5,44.2 C 856.2,16.8 913.4,17.3 910,42.9 v 21.3 c -0.1,3.6 2.7,3.3 5,2.6 l 0.6,10.3 c -7.2,2.8 -19.2,1.7 -18.5,-6.9 h -0.6 c -31.1,29.1 -63.9,-24.4 -1.6,-23.8 3.5,-16.5 -22.3,-15 -18.6,-3 z M 882,67.8 c 4.9,0 10,-2.3 13,-5.8 v -7.7 c -15.7,0.3 -20.1,3.5 -20.1,8 -0.1,3.9 2.5,5.5 7.1,5.5 z"
   id="path6"
   style="fill:#54f442;fill-opacity:1" />
	<path
   class="st0"
   d="M 970.8,77.3 H 959.1 L 957,71.5 h -0.6 C 943.9,84.9 916.1,79 917.6,51 c -1,-26.9 23.8,-33.8 37.1,-21.2 h 0.6 V 0.3 h 15.4 z M 955.4,39.5 c -29.6,-23.7 -29,47 0,23.4 z"
   id="path7"
   style="fill:#54f442;fill-opacity:1" />
	<path
   class="st0"
   d="m 1004.9,23.8 c 36.9,-2.4 37,57 0,54.6 -37.1,2.5 -36.9,-57 0,-54.6 z m 11.9,27.4 c 1.3,-22.3 -25.2,-22.2 -23.9,0 -1.3,22 25.1,22.1 23.9,0 z"
   id="path8"
   style="fill:#54f442;fill-opacity:1" />
	<path
   class="st0"
   d="m 1054.6,77.3 h -15.5 V 24.9 h 11.3 l 1.9,7.3 h 0.8 c 12.2,-17.4 34.2,-6.4 27.7,15.1 l -13.3,-0.8 c 3.4,-12.5 -8.9,-15.5 -12.9,-4.9 z"
   id="path9"
   style="fill:#54f442;fill-opacity:1" />
</g>









<path
   d="M 44.227,24.749903 H 25.180335 L 15.818416,78.44626 c -1.076083,6.133841 -3.013031,8.501219 -5.810847,8.501219 -2.259774,0 -4.3043302,-0.643937 -6.2412798,-1.291295 L 0,98.353961 c 3.12064,0.860867 7.3173626,1.721739 12.267342,1.721739 12.374952,0 20.015139,-7.532585 22.382521,-20.983791 z M 26.579243,17.109545 H 45.518298 L 48.100897,2.6900369 H 29.161842 Z M 78.73339,61.444152 c -1.721734,2.260626 -4.089123,3.981677 -7.102061,3.981677 -3.443468,0 -6.24128,-2.260617 -6.24128,-9.254311 0,-12.159906 5.488024,-19.262052 11.191174,-19.262052 3.120635,0 4.94998,2.152166 5.703236,4.196894 z M 62.377015,78.554038 c 8.285836,0 13.558552,-4.734764 16.356375,-7.532579 h 0.538034 c 0.645656,4.842202 3.335857,7.532579 10.438004,7.532579 3.335857,0 9.254314,-0.860867 12.052122,-1.721733 L 103.48329,64.6724 c -0.96848,0.430434 -2.36738,0.860867 -3.658681,0.860867 -2.905423,0 -2.259778,-3.443465 -1.936956,-5.057419 L 104.12893,24.749903 H 89.92465 l -3.76629,6.994367 h -0.645656 c -2.259767,-3.76612 -6.026058,-8.07045 -15.172675,-8.07045 -13.989072,0 -25.287943,13.558642 -25.287943,33.358564 0,16.033461 8.71627,21.521654 17.324929,21.521654 z m 45.051905,-21.199 c 0,13.020772 9.0391,21.199 24.85752,21.199 21.73687,0 26.79446,-10.330394 26.79446,-22.275082 l -18.50863,-0.101694 c 0,5.703068 -3.22824,9.254311 -7.64018,9.254311 -3.8739,0 -6.02606,-3.335014 -6.02606,-8.608662 0,-10.653389 4.08911,-19.907701 10.86843,-19.907701 3.8739,0 5.05759,2.369077 5.05759,5.05776 0,1.613272 -0.32282,2.79612 -0.64565,4.196552 l 18.61623,-0.20338 c 0.64565,-1.613281 1.39891,-3.981335 1.39891,-6.671712 0,-5.810847 -4.84237,-15.60303 -23.351,-15.60303 -22.1673,0 -31.42162,15.926025 -31.42162,33.681219 z m 104.55938,5.380414 c -1.82934,-4.411769 -4.51954,-11.513915 -5.59563,-13.343427 3.22825,-3.550901 15.38798,-20.553009 17.64776,-22.489957 l 0.43043,-2.152165 h -20.01514 c -2.15217,1.830192 -11.29887,16.356457 -13.55864,18.508622 L 186.80796,43.688959 194.55576,0 H 175.5091 l -13.66625,77.477956 h 19.04666 l 3.76629,-21.736872 h 5.05758 c 1.07609,2.043715 3.55108,9.576966 5.1652,14.849941 0.96848,3.226554 3.01304,7.963013 10.65322,7.963013 3.65869,0 7.53258,-0.538849 10.438,-1.50821 l 2.25978,-12.697776 c -0.96848,0.338965 -2.15217,0.538847 -3.12064,0.538847 -1.3989,0 -2.36738,-0.538847 -3.12064,-2.152165 z m 9.32605,14.742504 h 14.20429 l 3.65868,-6.24128 h 0.53805 c 1.82933,2.796119 5.48801,7.317362 14.09668,7.317362 11.51408,0 26.57924,-8.823879 26.57924,-34.327209 0,-15.280374 -9.36192,-20.553009 -17.43254,-20.553009 -6.4565,0 -10.76082,3.013031 -13.66625,6.241279 h -0.53804 L 254.13487,0 H 235.19582 Z M 246.7099,41.10636 c 1.82934,-2.369077 4.94998,-4.196894 7.53258,-4.196894 3.33586,0 6.77932,2.260626 6.77932,9.254312 0,12.805554 -6.34888,19.262051 -11.94452,19.262051 -2.79781,0 -5.05759,-1.613272 -5.91846,-3.658681 z m 36.33573,16.033462 c 0,12.590337 7.53258,21.414216 25.39555,21.414216 20.12274,0 30.56075,-14.096854 30.56075,-33.251126 0,-12.697776 -7.7478,-21.629092 -25.61077,-21.629092 -20.23035,0 -30.34553,14.311729 -30.34553,33.466002 z m 25.61076,8.286007 c -3.76629,0 -6.34888,-2.582599 -6.34888,-8.393445 0,-13.020772 3.9815,-20.122918 10.86843,-20.122918 3.8739,0 6.34889,2.69106 6.34889,8.393446 0,13.128209 -4.08911,20.122917 -10.86844,20.122917 z M 366.8366,30.775966 c -1.39891,-4.519548 -3.65868,-7.102146 -10.33039,-7.102146 -3.8739,0 -7.8554,0.75245 -10.65323,1.50482 l -2.36737,12.912993 c 1.07607,-0.430433 2.25977,-0.75245 3.55106,-0.75245 1.50653,0 3.33586,0.538847 4.30434,2.691049 l 5.38041,10.868265 -20.33796,24.857681 -0.32282,1.721732 h 20.23035 l 6.88693,-9.684744 c 1.93695,-2.79612 3.76629,-5.488192 5.27281,-8.823878 h 0.53804 c 0.53803,2.474147 1.07608,4.94998 2.04456,7.855233 l 1.2913,3.873897 c 1.61412,4.734764 4.41193,7.855575 10.5456,7.855575 3.76629,0 7.8554,-0.75245 10.65323,-1.508211 l 2.25977,-12.912992 c -0.96848,0.430433 -2.25977,0.75245 -3.55107,0.75245 -1.2913,0 -2.79783,-0.538847 -3.98152,-2.691058 l -5.91845,-11.729472 19.90754,-23.889036 0.32282,-1.830184 h -20.23036 l -6.13367,8.608662 c -2.15217,3.013031 -3.9815,5.703068 -5.59563,9.039095 h -0.43043 c -0.53804,-2.582599 -1.39891,-5.488192 -2.36739,-8.608661 z m 33.10748,46.70199 h 20.55318 L 423.83311,58.5389 h -20.55317 z m 56.78125,-30.022879 c 1.1837,-6.994367 5.05759,-10.545611 8.60867,-10.545611 3.87389,0 6.5641,2.79951 6.5641,8.716441 0,13.450863 -5.91846,19.799922 -11.7293,19.799922 -2.58261,0 -4.73476,-1.39975 -5.91846,-3.551243 z m -0.32282,-13.66608 c 0.10761,-0.75245 0.21522,-1.613272 0.21522,-2.152165 0,-3.551243 -2.79783,-7.963012 -10.43796,-7.963012 -3.65868,0 -9.0391,0.75245 -11.6217,1.50482 l -1.50651,12.48256 c 0.75326,-0.430433 2.04456,-0.752451 3.33586,-0.752451 2.90542,0 2.79781,2.582599 2.47499,4.627326 l -10.33039,57.462822 h 19.04666 l 4.51954,-26.041207 h 0.75326 c 2.25977,3.121483 5.70324,5.595631 12.05213,5.595631 11.19126,0 26.57924,-8.393445 26.57924,-34.649864 0,-14.742503 -9.68475,-20.230354 -18.1858,-20.230354 -9.1467,0 -13.55864,4.842201 -16.35646,10.115177 z m 42.79222,25.825985 c -0.32282,1.721732 -0.53804,3.981335 -0.53804,5.703068 0,7.747795 5.91846,13.235988 16.67928,13.235988 5.70324,0 10.76083,-1.074388 15.38799,-2.582599 l 1.93694,-14.527287 c -3.9815,1.721733 -7.10215,2.582599 -9.68475,2.582599 -3.65868,0 -4.62714,-1.508211 -4.62714,-3.873898 0,-0.752451 0,-1.504821 0.21521,-2.474138 l 3.65868,-21.736871 h 15.28037 l 1.93696,-11.191261 h -15.28038 l 2.04456,-11.944687 h -12.91299 l -5.70324,11.944687 h -10.86844 l -1.93695,11.191261 h 8.39344 z"
   id="text12"
   style="font-style:italic;font-weight:800;font-size:3.175px;line-height:0;font-family:'HvDTrial Supria Sans';-inkscape-font-specification:'HvDTrial Supria Sans Ultra-Bold Italic';letter-spacing:-0.105833px;fill:#ffffff;fill-opacity:1;stroke-width:8.96735"
   aria-label="jackbox.pt" /></svg>
