<?xml version="1.0" encoding="UTF-8" standalone="no"?>
<!-- Created with Inkscape (http://www.inkscape.org/) -->

<svg
   width="15.91628mm"
   height="2.95275mm"
   viewBox="0 0 15.91628 2.95275"
   version="1.1"
   id="svg1"
   inkscape:version="1.4 (86a8ad7, 2024-10-11)"
   sodipodi:docname="text.svg"
   xmlns:inkscape="http://www.inkscape.org/namespaces/inkscape"
   xmlns:sodipodi="http://sodipodi.sourceforge.net/DTD/sodipodi-0.dtd"
   xmlns="http://www.w3.org/2000/svg"
   xmlns:svg="http://www.w3.org/2000/svg">
  <sodipodi:namedview
     id="namedview1"
     pagecolor="#505050"
     bordercolor="#eeeeee"
     borderopacity="1"
     inkscape:showpageshadow="0"
     inkscape:pageopacity="0"
     inkscape:pagecheckerboard="0"
     inkscape:deskcolor="#505050"
     inkscape:document-units="mm"
     inkscape:clip-to-page="false"
     inkscape:zoom="7.2407734"
     inkscape:cx="13.810679"
     inkscape:cy="16.227548"
     inkscape:window-width="1366"
     inkscape:window-height="705"
     inkscape:window-x="-8"
     inkscape:window-y="-8"
     inkscape:window-maximized="1"
     inkscape:current-layer="layer1" />
  <defs
     id="defs1" />
  <g
     inkscape:label="Camada 1"
     inkscape:groupmode="layer"
     id="layer1"
     transform="translate(-3.7068306,-150.89285)">
    <path
       d="m 5.0117556,151.6231 h -0.561975 l -0.276225,1.58432 c -0.03175,0.18098 -0.0889,0.25083 -0.17145,0.25083 -0.066675,0 -0.127,-0.019 -0.18415,-0.0381 l -0.111125,0.37465 c 0.092075,0.0254 0.2159,0.0508 0.36195,0.0508 0.365125,0 0.59055,-0.22225 0.6604,-0.61913 z m -0.5207,-0.22543 h 0.5588 l 0.0762,-0.42545 h -0.5588 z m 1.5388197,1.3081 c -0.0508,0.0667 -0.12065,0.11748 -0.20955,0.11748 -0.1016,0 -0.18415,-0.0667 -0.18415,-0.27305 0,-0.35878 0.161925,-0.56833 0.3302,-0.56833 0.092075,0 0.14605,0.0635 0.168275,0.12383 z m -0.4825999,0.50483 c 0.2444749,0 0.4000499,-0.1397 0.4825999,-0.22225 h 0.015875 c 0.01905,0.14287 0.098425,0.22225 0.307975,0.22225 0.098425,0 0.27305,-0.0254 0.3556,-0.0508 l 0.0508,-0.35878 c -0.028575,0.0127 -0.06985,0.0254 -0.10795,0.0254 -0.085725,0 -0.066675,-0.1016 -0.05715,-0.14922 l 0.18415,-1.0541 h -0.4191 l -0.111125,0.20637 h -0.01905 c -0.066675,-0.11112 -0.1778,-0.23812 -0.447675,-0.23812 -0.4127499,0 -0.7461249,0.40005 -0.7461249,0.98425 0,0.47307 0.257175,0.635 0.511175,0.635 z m 1.329266,-0.62548 c 0,0.38418 0.2667,0.62548 0.733425,0.62548 0.64135,0 0.790575,-0.3048 0.790575,-0.65723 l -0.5461,-0.003 c 0,0.16827 -0.09525,0.27305 -0.225425,0.27305 -0.1143,0 -0.1778,-0.0984 -0.1778,-0.254 0,-0.31433 0.12065,-0.58738 0.320675,-0.58738 0.1143,0 0.149225,0.0699 0.149225,0.14923 0,0.0476 -0.00953,0.0825 -0.01905,0.12382 l 0.549275,-0.006 c 0.01905,-0.0476 0.041275,-0.11747 0.041275,-0.19685 0,-0.17145 -0.142875,-0.46037 -0.688975,-0.46037 -0.65405,0 -0.9271,0.4699 -0.9271,0.99377 z m 3.0850424,0.15875 c -0.053975,-0.13017 -0.13335,-0.33972 -0.1651,-0.3937 0.09525,-0.10477 0.4540252,-0.60642 0.5207002,-0.66357 l 0.0127,-0.0635 H 9.7393338 c -0.0635,0.054 -0.333375,0.4826 -0.40005,0.5461 l -0.12065,0.0127 0.2286,-1.28905 h -0.561975 l -0.403225,2.286 h 0.561975 l 0.111125,-0.64135 h 0.149225 c 0.03175,0.0603 0.104775,0.28257 0.1524,0.43815 0.028575,0.0952 0.0889,0.23495 0.314325,0.23495 0.10795,0 0.22225,-0.0159 0.3079752,-0.0445 l 0.06667,-0.37465 c -0.02858,0.01 -0.0635,0.0159 -0.09207,0.0159 -0.04127,0 -0.06985,-0.0159 -0.092075,-0.0635 z m 0.2751682,0.43498 h 0.4191 l 0.10795,-0.18415 h 0.01587 c 0.05398,0.0825 0.161925,0.2159 0.415925,0.2159 0.339725,0 0.784225,-0.26035 0.784225,-1.01283 0,-0.45085 -0.276225,-0.60642 -0.51435,-0.60642 -0.1905,0 -0.3175,0.0889 -0.403225,0.18415 h -0.01588 l 0.15875,-0.88265 h -0.5588 z m 0.7493,-1.07315 c 0.05397,-0.0699 0.14605,-0.12383 0.22225,-0.12383 0.09843,0 0.200025,0.0667 0.200025,0.27305 0,0.37783 -0.187325,0.56833 -0.352425,0.56833 -0.08255,0 -0.149225,-0.0476 -0.174625,-0.10795 z m 1.072093,0.47307 c 0,0.37148 0.22225,0.63183 0.7493,0.63183 0.593725,0 0.9017,-0.41593 0.9017,-0.98108 0,-0.37465 -0.2286,-0.63817 -0.75565,-0.63817 -0.5969,0 -0.89535,0.42227 -0.89535,0.98742 z m 0.75565,0.24448 c -0.111125,0 -0.187325,-0.0762 -0.187325,-0.24765 0,-0.38418 0.117475,-0.59373 0.320675,-0.59373 0.1143,0 0.187325,0.0794 0.187325,0.24765 0,0.38735 -0.12065,0.59373 -0.320675,0.59373 z m 1.716616,-1.02235 c -0.04128,-0.13335 -0.10795,-0.20955 -0.3048,-0.20955 -0.1143,0 -0.231775,0.0222 -0.314325,0.0444 l -0.06985,0.381 c 0.03175,-0.0127 0.06668,-0.0222 0.104775,-0.0222 0.04445,0 0.09843,0.0159 0.127,0.0794 l 0.15875,0.32067 -0.600075,0.73343 -0.0095,0.0508 h 0.5969 l 0.2032,-0.28575 c 0.05715,-0.0825 0.111125,-0.16193 0.155575,-0.26035 h 0.01587 c 0.01587,0.073 0.03175,0.14605 0.06032,0.23177 l 0.0381,0.1143 c 0.04763,0.1397 0.130175,0.23178 0.31115,0.23178 0.111125,0 0.231775,-0.0222 0.314325,-0.0445 l 0.06668,-0.381 c -0.02858,0.0127 -0.06668,0.0222 -0.104775,0.0222 -0.0381,0 -0.08255,-0.0159 -0.117475,-0.0794 l -0.174625,-0.34608 0.587375,-0.70485 0.0095,-0.054 h -0.5969 l -0.180975,0.254 c -0.0635,0.0889 -0.117475,0.16827 -0.1651,0.2667 h -0.0127 c -0.01587,-0.0762 -0.04127,-0.16193 -0.06985,-0.254 z m 0.976845,1.37795 h 0.606425 l 0.09842,-0.5588 h -0.606425 z m 1.675339,-0.88583 c 0.03493,-0.20637 0.149225,-0.31115 0.254,-0.31115 0.1143,0 0.193675,0.0826 0.193675,0.25718 0,0.39687 -0.174625,0.5842 -0.346075,0.5842 -0.0762,0 -0.1397,-0.0413 -0.174625,-0.10478 z m -0.0095,-0.40322 c 0.0032,-0.0222 0.0064,-0.0476 0.0064,-0.0635 0,-0.10478 -0.08255,-0.23495 -0.307975,-0.23495 -0.10795,0 -0.2667,0.0222 -0.3429,0.0444 l -0.04445,0.3683 c 0.02222,-0.0127 0.06032,-0.0222 0.09842,-0.0222 0.08573,0 0.08255,0.0762 0.07303,0.13653 l -0.304799,1.69545 h 0.561974 l 0.13335,-0.76835 h 0.02222 c 0.06668,0.0921 0.168275,0.1651 0.3556,0.1651 0.3302,0 0.784225,-0.24765 0.784225,-1.02235 0,-0.43498 -0.28575,-0.5969 -0.536575,-0.5969 -0.269875,0 -0.40005,0.14287 -0.4826,0.29845 z m 1.262593,0.762 c -0.0095,0.0508 -0.01588,0.11747 -0.01588,0.16827 0,0.2286 0.174625,0.39053 0.492125,0.39053 0.168275,0 0.3175,-0.0317 0.454025,-0.0762 l 0.05715,-0.42863 c -0.117475,0.0508 -0.20955,0.0762 -0.28575,0.0762 -0.10795,0 -0.136525,-0.0445 -0.136525,-0.1143 0,-0.0222 0,-0.0444 0.0063,-0.073 l 0.10795,-0.64135 h 0.45085 l 0.05715,-0.3302 h -0.45085 l 0.06032,-0.35243 h -0.381 l -0.168275,0.35243 h -0.320675 l -0.05715,0.3302 h 0.24765 z"
       id="text12"
       style="font-style:italic;font-weight:800;font-size:3.175px;line-height:0;font-family:'HvDTrial Supria Sans';-inkscape-font-specification:'HvDTrial Supria Sans Ultra-Bold Italic';letter-spacing:-0.105833px;fill:#ffffff;stroke-width:0.264583;fill-opacity:1"
       aria-label="jackbox.pt" />
  </g>
</svg>
